<?xml version="1.0" encoding="UTF-8" standalone="no"?>
<!-- Created with Inkscape (http://www.inkscape.org/) -->

<svg
   xmlns:dc="http://purl.org/dc/elements/1.1/"
   xmlns:cc="http://creativecommons.org/ns#"
   xmlns:rdf="http://www.w3.org/1999/02/22-rdf-syntax-ns#"
   xmlns:svg="http://www.w3.org/2000/svg"
   xmlns="http://www.w3.org/2000/svg"
   xmlns:xlink="http://www.w3.org/1999/xlink"
   xmlns:sodipodi="http://sodipodi.sourceforge.net/DTD/sodipodi-0.dtd"
   xmlns:inkscape="http://www.inkscape.org/namespaces/inkscape"
   width="252.79163mm"
   height="220.36127mm"
   viewBox="0 0 895.71836 780.80764"
   id="svg2"
   version="1.1"
   inkscape:version="0.91 r13725"
   sodipodi:docname="sunchine.svg">
  <defs
     id="defs4">
    <linearGradient
       id="linearGradient4221"
       inkscape:collect="always">
      <stop
         id="stop4223"
         offset="0"
         style="stop-color:#ffffff;stop-opacity:1" />
      <stop
         id="stop4225"
         offset="1"
         style="stop-color:#ffda00;stop-opacity:1" />
    </linearGradient>
    <linearGradient
       inkscape:collect="always"
       id="linearGradient3367">
      <stop
         style="stop-color:#ffcc92;stop-opacity:1"
         offset="0"
         id="stop3369" />
      <stop
         style="stop-color:#ffaa00;stop-opacity:0"
         offset="1"
         id="stop3371" />
    </linearGradient>
    <radialGradient
       inkscape:collect="always"
       xlink:href="#linearGradient3367"
       id="radialGradient3375"
       cx="376.42819"
       cy="500.80301"
       fx="376.42819"
       fy="500.80301"
       r="173.40202"
       gradientUnits="userSpaceOnUse"
       gradientTransform="matrix(0.96237161,-0.02446704,0.02541548,0.99967698,2.5984331,9.6808857)" />
    <radialGradient
       inkscape:collect="always"
       xlink:href="#linearGradient4221"
       id="radialGradient4219"
       cx="373.33173"
       cy="496.00482"
       fx="373.33173"
       fy="496.00482"
       r="248.18143"
       gradientTransform="matrix(0.74133393,-1.0322817,1.0642438,0.76428759,-431.28581,507.40525)"
       gradientUnits="userSpaceOnUse" />
  </defs>
  <sodipodi:namedview
     id="base"
     pagecolor="#ffffff"
     bordercolor="#666666"
     borderopacity="1.0"
     inkscape:pageopacity="0.0"
     inkscape:pageshadow="2"
     inkscape:zoom="0.70710678"
     inkscape:cx="615.29387"
     inkscape:cy="308.81899"
     inkscape:document-units="px"
     inkscape:current-layer="layer1"
     showgrid="false"
     showguides="true"
     inkscape:window-width="1375"
     inkscape:window-height="876"
     inkscape:window-x="65"
     inkscape:window-y="24"
     inkscape:window-maximized="1"
     fit-margin-top="20"
     fit-margin-left="20"
     fit-margin-right="20"
     fit-margin-bottom="20" />
  <metadata
     id="metadata7">
    <rdf:RDF>
      <cc:Work
         rdf:about="">
        <dc:format>image/svg+xml</dc:format>
        <dc:type
           rdf:resource="http://purl.org/dc/dcmitype/StillImage" />
        <dc:title></dc:title>
      </cc:Work>
    </rdf:RDF>
  </metadata>
  <g
     inkscape:label="Layer 1"
     inkscape:groupmode="layer"
     id="layer1"
     transform="translate(89.116121,-96.480158)">
    <g
       id="g6890">
      <g
         id="g6830">
        <g
           id="g6771">
          <g
             id="g6713">
            <g
               id="g6656">
              <g
                 id="g6600">
                <g
                   id="g6545">
                  <g
                     id="g6491">
                    <g
                       id="g6438">
                      <g
                         id="g6386">
                        <g
                           id="g6335">
                          <g
                             id="g6285">
                            <g
                               id="g6236">
                              <g
                                 id="g6188">
                                <g
                                   id="g6141">
                                <g
                                   id="g6095">
                                <g
                                   id="g6050">
                                <g
                                   id="g6006">
                                <g
                                   id="g5963">
                                <g
                                   id="g5921">
                                <g
                                   id="g5880">
                                <g
                                   id="g5840">
                                <g
                                   id="g5801">
                                <g
                                   id="g5763">
                                <g
                                   id="g5726">
                                <g
                                   id="g5690">
                                <g
                                   id="g5655">
                                <g
                                   id="g5621">
                                <g
                                   id="g5588">
                                <g
                                   id="g5556">
                                <g
                                   id="g5525">
                                <g
                                   id="g5495">
                                <g
                                   id="g5466">
                                <g
                                   id="g5438">
                                <g
                                   id="g5411">
                                <g
                                   id="g5385">
                                <g
                                   id="g5360">
                                <g
                                   id="g5336">
                                <g
                                   id="g5313">
                                <g
                                   id="g5291">
                                <path
                                   style="color:#000000;font-style:normal;font-variant:normal;font-weight:normal;font-stretch:normal;font-size:medium;line-height:normal;font-family:sans-serif;text-indent:0;text-align:start;text-decoration:none;text-decoration-line:none;text-decoration-style:solid;text-decoration-color:#000000;letter-spacing:normal;word-spacing:normal;text-transform:none;direction:ltr;block-progression:tb;writing-mode:lr-tb;baseline-shift:baseline;text-anchor:start;white-space:normal;clip-rule:nonzero;display:inline;overflow:visible;visibility:visible;opacity:1;isolation:auto;mix-blend-mode:normal;color-interpolation:sRGB;color-interpolation-filters:linearRGB;solid-color:#000000;solid-opacity:1;fill:#ffff00;fill-opacity:0.20496898;fill-rule:evenodd;stroke:none;stroke-width:32;stroke-linecap:round;stroke-linejoin:round;stroke-miterlimit:4;stroke-dasharray:none;stroke-dashoffset:0;stroke-opacity:1;color-rendering:auto;image-rendering:auto;shape-rendering:auto;text-rendering:auto;enable-background:accumulate"
                                   d="m 402.59482,159.95867 c -6.60383,-0.0983 -11.86046,2.99476 -15.38672,6.08594 -3.52625,3.09118 -6.08445,6.55414 -8.66211,10.70117 a 16.0016,16.0016 0 0 0 -1.73828,3.86133 c -3.24714,10.85473 -11.59257,23.80412 -21.11914,31.26758 -8.08851,6.33684 -15.44982,9.04299 -23.74414,7.12695 -3.05802,-4.62351 -7.03681,-8.59955 -14.58985,-10.32226 -5.27253,-1.20257 -11.64728,0.3388 -15.50586,2.97656 -3.85858,2.63776 -5.86473,5.64348 -7.32812,8.33008 -5.16882,9.48932 -5.92553,17.88551 -4.33399,27.16797 -0.24407,1.698 -0.48969,3.3958 -0.87304,5.10547 -1.0901,-1.60099 -2.10404,-3.20365 -2.89844,-4.75586 a 16.0016,16.0016 0 0 0 -2.41016,-3.48242 c -3.3308,-3.65895 -6.49262,-6.66956 -11.16992,-9.0293 -4.6773,-2.35975 -12.6877,-3.54347 -18.99219,-0.29492 -6.30449,3.24854 -8.86078,8.25769 -10.32617,11.96289 -1.46539,3.70519 -2.04561,6.97128 -2.47656,10.21875 -0.86191,6.49494 -0.87313,12.97216 -0.90234,18.65234 -0.0292,5.68018 -0.23449,11.05461 -0.30079,11.48828 a 16.0016,16.0016 0 0 0 0.125,5.54297 c 1.00532,5.04561 -1.8103,8.22717 -3.38671,9.06055 -0.7882,0.41669 -0.74543,0.28984 -0.79102,0.27539 -0.0456,-0.0145 -1.04741,-0.11221 -2.85547,-3.39844 a 16.0016,16.0016 0 0 0 -2.20117,-3.07422 c -4.09076,-4.48131 -11.04084,-15.04578 -18.79492,-24.68945 -3.87703,-4.82184 -8.01619,-9.54486 -13.33008,-13.60547 -5.3139,-4.06061 -12.67295,-8.03021 -21.87109,-7.13477 a 16.0016,16.0016 0 0 0 -14.39844,17.21094 c 2.11845,26.28386 6.15429,49.03216 -1.3418,67.70703 a 16.0016,16.0016 0 0 0 -0.83008,2.77735 c -1.74709,8.60656 -4.34884,10.58279 -8.98828,12.48828 -4.63945,1.90549 -12.65617,2.2787 -21.38867,0.25195 a 16.0016,16.0016 0 0 0 -17.74609,8.07813 c -2.48895,4.68434 -3.39729,9.82878 -3.4043,14.70898 -7.1966,-1.98588 -14.579381,-0.71951 -20.679691,2.28516 -6.76792,3.3335 -13.35047,11.01875 -14.83593,20.12304 -6.65602,-2.88759 -13.10029,-9.27293 -19.14258,-17.65429 a 16.0016,16.0016 0 0 0 -0.38477,-0.51172 c -7.14586,-9.11925 -14.33376,-11.52115 -24.0918,-12.63086 -4.87901,-0.55486 -11.36702,-0.65263 -17.95703,4.50781 -6.590002,5.16044 -8.766567,15.11588 -7.572262,21.83789 a 16.0016,16.0016 0 0 0 1.818359,5.0625 c 0.484094,0.85807 1.021438,1.52114 1.53125,2.29492 -3.626505,0.12666 -7.815137,0.57685 -12.494141,2.67579 -4.714219,2.11474 -9.830617,6.58304 -12.410156,12.26953 a 16.0016,16.0016 0 0 0 -1.142578,3.59179 c -1.155693,6.02068 -0.09214,12.93861 3.023437,18.13086 2.341933,3.90294 5.444768,6.70973 8.63086,8.7168 -1.908837,4.96986 -2.44589,10.97591 -0.605469,16.07031 2.424372,6.71082 7.226415,10.58466 11.544922,12.9043 8.024248,4.31014 16.126258,5.84167 25.585938,1.79492 11.84626,-2.44282 20.87577,-7.09202 27.91797,-10.14453 7.24404,-3.14 12.11056,-4.72461 18.88086,-4.25781 11.0384,2.39633 22.52907,6.79176 34.843751,11.39843 1.03776,0.40283 2.11397,0.93594 3.17578,1.42579 1.17212,7.01267 4.20433,12.95402 7.33398,17.77343 a 16.0016,16.0016 0 0 0 1.02539,5.02539 c 6.01885,15.81537 -0.47926,36.12409 -0.51953,62.05665 -0.15963,0.12073 -0.2805,0.28473 -0.44336,0.40234 a 16.0016,16.0016 0 0 0 -5.20898,19.56836 c 4.7209,10.43096 12.10989,17.80327 19.21289,23.67383 9.07893,9.5286 16.61996,20.14065 23.24805,31.81445 -2.09263,1.24565 -4.07893,2.32319 -6.24219,3.8457 -1.86466,1.31237 -3.93643,2.61607 -6.44727,6.24805 -1.25542,1.81599 -2.70946,4.46034 -3.16015,8.22851 -0.45069,3.76819 0.66819,8.41404 2.65039,11.50196 3.96442,6.17582 8.13817,7.19507 11.24609,8.22461 3.10792,1.02954 6.01704,1.54817 9.49609,2.00976 a 16.0016,16.0016 0 0 0 4.33399,-0.0176 c 4.70868,-0.66224 9.1804,-0.37639 13.72851,0.45507 10.78703,5.69023 19.05444,15.29429 28.17969,27.56055 9.56668,12.85963 19.7942,28.35193 36.66602,39.87891 a 16.0016,16.0016 0 0 0 8.21875,2.76757 c 7.59368,0.38329 14.95487,-0.0648 22.18945,-0.69336 4.92037,9.21664 8.88677,16.57476 8.33203,22.08985 a 16.0016,16.0016 0 0 0 -0.0625,1.95312 c -0.4998,0.28385 -0.80907,0.50996 -1.54297,0.83203 -5.49664,2.4122 -15.41368,4.1432 -25.625,11.00586 a 16.0016,16.0016 0 0 0 -1.71875,1.33399 c -4.53855,4.04443 -9.62134,10.96811 -8.45507,19.87109 1.16627,8.90298 7.2304,13.48412 11.17773,15.79102 7.89464,4.61379 14.43517,5.20939 18.67188,5.86328 a 16.0016,16.0016 0 0 0 2.6621,0.18555 c 17.16606,-0.23707 35.24474,0.55496 53.99024,-0.45899 a 16.0016,16.0016 0 0 0 13.25,-8.43945 c 4.70928,-8.81657 3.98138,-16.70183 3.1914,-23.26563 -0.78998,-6.56379 -2.27854,-12.36638 -3.06054,-16.1875 l 0.0391,0.20508 c -2.34356,-12.26267 -8.21069,-20.40588 -11.07031,-26.44922 -0.7553,-2.23324 -1.52493,-4.42171 -2.35156,-6.21484 3.76449,0.80788 7.34808,1.84781 10.5332,3.47656 a 16.0016,16.0016 0 0 0 11.55273,1.17578 c 4.68116,-1.2955 19.78945,1.8124 36.53907,3.51953 8.37481,0.85357 17.83643,1.13703 27.57421,-3.06835 7.64399,-3.30115 14.32083,-9.94861 18.71094,-18.33399 10.16029,-4.71485 20.77948,-9.3268 31.64258,-14.05469 1.93134,3.10359 4.76667,7.34113 9.16016,12.54492 a 16.0016,16.0016 0 0 0 0.40625,0.46485 c 1.38736,1.52015 2.89167,9.41805 10.89648,19.56641 3.50873,5.69329 7.13807,15.05368 16.14063,23.70507 l -0.1504,-0.14453 c 2.77631,2.73857 6.82712,7.14923 11.89844,11.39063 5.07132,4.24139 11.28697,9.15215 21.2461,10.01172 a 16.0016,16.0016 0 0 0 14.29687,-6.50391 c 11.07019,-15.16041 20.26534,-30.74634 29.82422,-45.00781 a 16.0016,16.0016 0 0 0 1.29492,-2.33203 c 1.76176,-3.90786 4.82833,-9.71634 5.26563,-18.84961 0.21865,-4.56664 -0.31369,-12.14755 -7.14063,-17.98047 -6.82695,-5.83293 -15.40237,-5.34946 -21.26758,-3.75 a 16.0016,16.0016 0 0 0 -2.05664,0.71484 c -11.32073,4.81829 -18.17775,12.18951 -23.19726,15.48242 -0.67087,0.44011 -1.03018,0.57548 -1.54102,0.83985 a 16.0016,16.0016 0 0 0 -1.66992,-1.01367 c -5.77926,-2.98253 -9.57652,-11.65161 -16.33594,-23.38672 2.06465,-1.34611 4.1421,-2.64062 6.17774,-4.0918 a 16.0016,16.0016 0 0 0 1.80468,-1.49805 c 22.59756,-21.73924 42.52165,-42.42087 67.86719,-43.50195 a 16.0016,16.0016 0 0 0 4.26367,-0.76758 c 4.63464,-1.50642 8.18574,-2.79654 12.07813,-5.35937 1.9462,-1.28142 4.15359,-2.90011 6.27344,-6.14649 2.11985,-3.24637 3.59834,-8.94671 2.51172,-13.7168 -2.17327,-9.54015 -7.63231,-11.43543 -10.625,-13.07617 -2.9927,-1.64073 -5.57563,-2.57462 -8.20899,-3.50976 -5.05717,-1.79587 -10.11959,-3.37009 -13.53516,-4.78321 0.95687,-8.5073 6.2598,-15.20047 15.0918,-24.71289 10.6838,-11.50689 26.33518,-24.87604 31.78125,-46.8789 a 16.0016,16.0016 0 0 0 -8.67187,-18.29883 c -16.52081,-7.83997 -25.54657,-29.39822 -24.66407,-49.6543 a 16.0016,16.0016 0 0 0 -0.33789,-4.04101 c -0.7101,-3.32185 0.16211,-6.97492 3.125,-13.3711 2.27946,-4.92082 5.80831,-10.76469 8.32422,-18.29883 11.26864,-6.80191 21.91668,-13.12036 32.41016,-16.84374 8.61273,-2.22227 20.83759,1.94778 37.38086,5.67187 a 16.0016,16.0016 0 0 0 0.2207,0.0469 c 3.06186,0.64387 6.13119,1.72741 10.82422,2.65821 4.69302,0.93079 11.05511,1.26425 17.48828,-0.26367 a 16.0016,16.0016 0 0 0 2.35938,-0.75782 c 5.72802,-2.34297 11.04796,-7.02222 13.63085,-12.89843 2.5829,-5.87622 2.40618,-12.18466 0.66993,-17.33399 -0.76057,-2.25568 -1.87579,-4.35716 -3.20508,-6.3125 l -1.64258,1.12891 c 0.39658,-0.2324 0.75382,-0.56351 1.14258,-0.82031 0.16592,-0.12538 0.32823,-0.18654 0.49414,-0.31641 -0.006,-0.008 -0.01,-0.0172 -0.0156,-0.0254 4.73387,-3.27997 8.78182,-8.23628 10.22461,-14.1211 1.60914,-6.56335 -0.003,-13.15627 -3.1289,-17.98046 -5.89803,-9.10319 -18.22226,-13.53193 -29.33789,-9.70118 0.005,-0.0102 0.009,-0.0211 0.0137,-0.0312 l 0.46094,-0.16015 c -0.14057,0.0364 -0.30228,0.0769 -0.44336,0.11328 1.28181,-2.92474 2.32646,-6.20115 2.54492,-10.03906 a 16.0016,16.0016 0 0 0 -0.66602,-5.56641 c -1.84714,-6.06977 -7.31746,-12.50069 -13.60937,-14.81055 -6.2919,-2.30986 -11.70242,-1.43312 -15.90039,-0.17968 -8.39593,2.5069 -13.8801,6.33775 -18.82031,13.08398 a 16.0016,16.0016 0 0 0 -1.23633,1.97656 c -5.36216,10.14715 -10.95135,18.09211 -17.11719,22.21875 -6.62681,-18.94079 -31.78804,-25.33267 -46.07813,-11.26562 1.51259,-3.13665 2.98831,-6.04409 4.45899,-9.47852 2.56236,-5.98374 4.92645,-12.5258 5.47266,-20.20117 0.5462,-7.67537 -1.41647,-16.98093 -7.17969,-24.24414 a 16.0016,16.0016 0 0 0 -18.91992,-4.72656 c -9.92229,4.31739 -19.67406,5.76118 -26.16211,4.39648 -6.48805,-1.36469 -10.76203,-3.85725 -14.84961,-14.01367 a 16.0016,16.0016 0 0 0 -1.32032,-2.58008 c -13.06188,-20.64669 -13.142,-48.10825 -16.24609,-78.45508 a 16.0016,16.0016 0 0 0 -17.2793,-14.3125 c -9.78649,0.83693 -16.83483,6.4326 -21.82031,11.9375 -4.98549,5.50491 -8.6596,11.63673 -12.0332,17.88867 -6.74719,12.5039 -12.43912,26.04732 -16.40625,32.41016 a 16.0016,16.0016 0 0 0 -1.60742,3.42188 c -1.54312,4.64665 -3.09688,5.61386 -3.81836,5.99804 -0.72148,0.38419 -1.42623,0.53471 -3,0.041 -3.14754,-0.98735 -7.75245,-5.09831 -7.65039,-12.22852 a 16.0016,16.0016 0 0 0 -0.88282,-5.47461 c -0.49017,-1.41233 -2.69765,-14.0154 -5.25,-25.06836 -1.27617,-5.52647 -2.68196,-10.97394 -5.38476,-16.50781 -1.35139,-2.76693 -3.00229,-5.66433 -6.05469,-8.60156 -3.0524,-2.93723 -8.32676,-5.93364 -14.2207,-6.02149 z m -0.0899,5.99805 c 4.14582,0.0618 7.86116,2.14285 10.15039,4.3457 2.28923,2.20286 3.66595,4.5406 4.82422,6.91211 2.31654,4.74302 3.69931,9.89841 4.92969,15.22657 2.46075,10.65631 4.41951,22.77857 5.42773,25.68359 a 10.001,10.001 0 0 1 0.55079,3.42188 c -0.13894,9.7063 6.06475,16.22514 11.85351,18.04101 2.89437,0.90794 5.37062,0.72365 7.61719,-0.47265 2.24656,-1.19629 4.77461,-3.6246 6.69336,-9.40235 a 10.001,10.001 0 0 1 1.00391,-2.13867 c 4.48062,-7.18644 10.07481,-20.6535 16.59374,-32.73438 3.25947,-6.04043 6.77374,-11.82221 11.20118,-16.71093 4.42745,-4.88873 10.23923,-9.33445 17.88476,-9.98829 a 10.001,10.001 0 0 1 10.79883,8.94727 c 3.05264,29.84387 2.89093,58.52357 17.14258,81.05078 a 10.001,10.001 0 0 1 0.82617,1.61328 c 4.69263,11.6598 10.94881,15.91326 19.17969,17.64454 8.23089,1.73129 19.09278,-0.10975 29.79297,-4.76563 a 10.001,10.001 0 0 1 11.82422,2.95313 c 4.76702,6.00774 6.36544,13.50001 5.89648,20.08984 -0.46896,6.58983 -2.57326,12.58751 -5.00391,18.26367 -4.86129,11.35233 -11.22865,22.10078 -13.00586,28.60352 a 10.001,10.001 0 0 1 -1.13476,2.61133 c -3.21159,5.20902 -3.80336,8.63353 -3.60547,11.21874 0.19789,2.58523 1.24133,4.92445 3.58008,7.75391 3.72699,4.50896 10.88263,9.24879 18.24023,14.03516 0.40645,-0.26904 0.80519,-0.54456 1.21289,-0.8125 a 10.001,10.001 0 0 1 3.00782,-1.33008 c 2.02543,-0.51962 4.67751,-2.91637 5.79687,-5.78516 1.06053,-2.71804 0.88426,-4.63733 -0.3418,-6.19336 -2.6594,-2.17448 -6.07305,-5.00143 -9.0664,-9.26367 -3.32774,-4.73838 -5.92948,-12.79397 -2.74219,-20.24414 a 10.001,10.001 0 0 1 1.22656,-2.11133 c 10.98034,-14.47072 34.44829,-8.87637 38.9043,8.32227 a 10.001,10.001 0 0 1 0.31641,2.74609 c -0.0257,1.08084 0.0142,0.83041 0.71679,1.20313 0.70262,0.37275 1.98729,0.50149 3.02149,-0.0234 a 10.001,10.001 0 0 1 0.50586,-0.24023 c 9.59472,-4.2105 16.60001,-14.83363 22.92187,-26.79688 a 10.001,10.001 0 0 1 0.77344,-1.23633 c 3.85973,-5.27073 8.89422,-8.85016 15.69531,-10.88086 3.40054,-1.01535 7.54617,-1.61559 12.11719,0.0625 4.57103,1.6781 8.50315,6.21886 9.93555,10.92578 a 10.001,10.001 0 0 1 0.41796,3.48047 c -0.41275,7.25105 -4.18298,12.57331 -7.15234,16.19141 -1.60656,1.95755 -2.2342,2.84486 -3.34375,4.19922 5.26473,-1.54593 10.43541,-2.90299 15.38672,-4.18555 8.75877,-3.29588 18.31103,0.24606 22.82617,7.21485 2.34753,3.6232 3.51724,8.47276 2.33594,13.29101 -1.10731,4.51651 -4.29645,8.40299 -8.27735,10.98242 -1.81689,1.39636 -3.65157,2.46708 -5.47851,3.31836 3.18308,2.45743 5.63288,5.75258 6.90039,9.51172 1.326,3.93263 1.44007,8.63958 -0.47656,13 -1.91662,4.36042 -5.8499,7.8964 -10.41016,9.76172 a 10.001,10.001 0 0 1 -1.47461,0.47266 c -5.56386,1.32145 -10.77281,1.04241 -14.93555,0.21679 -4.16272,-0.82562 -7.30783,-1.91946 -10.75585,-2.64453 a 10.001,10.001 0 0 1 -0.13672,-0.0293 c -15.93482,-3.58711 -29.36946,-8.57578 -40.45508,-5.57421 -12.0347,4.22754 -23.68075,11.33232 -35.81055,18.66992 -2.27631,7.65674 -5.97652,14.0191 -8.61133,19.70703 -3.13646,6.77089 -4.66491,11.92541 -3.54882,17.14648 a 10.001,10.001 0 0 1 0.21093,2.52735 c -0.96545,22.16005 8.75188,46.15898 28.08594,55.33398 a 10.001,10.001 0 0 1 5.41992,11.4375 c -4.88965,19.75488 -19.44448,32.48669 -30.35547,44.23828 -10.21366,11.00053 -17.08652,19.92677 -16.80859,32.42774 0.73616,0.46254 1.64302,1.01965 3.19336,1.68359 3.89313,1.66723 9.42368,3.33646 14.44922,5.12109 2.51277,0.89232 4.89272,1.77984 7.33203,3.11719 2.4393,1.33735 6.22195,2.84166 7.6582,9.14649 0.71812,3.15242 -0.23877,6.89284 -1.68359,9.10546 -1.44482,2.21263 -3.02954,3.41373 -4.54883,4.41407 -3.03858,2.00066 -6.25364,3.24068 -10.63281,4.66406 a 10.001,10.001 0 0 1 -2.66602,0.48047 c -28.2766,1.2061 -49.38541,23.63991 -71.76953,45.17383 a 10.001,10.001 0 0 1 -1.12891,0.93554 c -3.55008,2.53081 -7.16922,4.87027 -10.82421,7.09961 8.23921,13.59441 12.5363,25.85991 21.71289,30.59571 a 10.001,10.001 0 0 1 2.73242,2.07226 c 1.12276,1.20599 0.17413,0.62064 0.77148,0.55274 0.59735,-0.0679 2.88562,-0.88848 5.75,-2.76758 5.72876,-3.7582 12.69121,-10.90568 22.25586,-14.97656 a 10.001,10.001 0 0 1 1.28516,-0.44727 c 4.90589,-1.33785 11.05612,-1.52372 15.79297,2.52344 4.73685,4.04715 5.2201,9.47206 5.04492,13.13086 -0.35037,7.3176 -3.10135,13.02595 -4.74414,16.66992 a 10.001,10.001 0 0 1 -0.80859,1.45703 c -9.68552,14.45043 -18.84522,29.96495 -29.68555,44.81055 a 10.001,10.001 0 0 1 -8.93555,4.0664 c -7.77233,-0.67083 -13.24441,-4.73288 -17.91211,-8.63672 -4.66771,-3.90383 -8.60914,-8.17432 -11.53515,-11.06054 l 0.0937,0.0898 c -7.63551,-7.33767 -11.20482,-15.91425 -14.93165,-22.08984 -7.48142,-9.12401 -8.82121,-17.60353 -11.83007,-20.90039 a 10.001,10.001 0 0 1 -0.25391,-0.28907 c -5.66811,-6.71348 -8.64669,-12.62976 -11.30078,-16.29101 -13.12893,5.80807 -26.15046,11.26002 -38.59375,17.11914 -3.74182,8.20994 -9.62164,14.37103 -16.58203,17.37695 -8.20857,3.54497 -16.66105,3.41533 -24.58789,2.60742 -15.85366,-1.61581 -31.2964,-5.39567 -38.7461,-3.33398 a 10.001,10.001 0 0 1 -7.2207,-0.73438 c -7.27749,-3.72142 -15.63819,-5.18674 -24.75391,-5.52929 2.49628,3.85903 6.21162,8.91551 8.65821,16.66406 3.14677,6.48185 8.37538,14.1402 10.35937,24.52149 l -0.0254,-0.12891 c 0.82411,4.0269 2.25532,9.65979 2.98242,15.70117 0.7271,6.04138 1.14793,12.84191 -2.52734,19.72266 a 10.001,10.001 0 0 1 -8.28114,5.27343 c -18.35592,0.99287 -36.3542,0.21097 -53.74805,0.45118 a 10.001,10.001 0 0 1 -1.66406,-0.11524 c -3.95052,-0.60972 -10.23552,-1.41875 -16.56055,-5.11523 -3.16252,-1.84824 -7.44665,-5.21135 -8.25586,-11.38867 -0.80921,-6.17731 2.70179,-11.23033 6.49805,-14.61329 a 10.001,10.001 0 0 1 1.07422,-0.83398 c 8.62738,-5.79816 18.41601,-7.73713 24.68945,-10.49023 3.13672,-1.37654 5.07065,-2.84498 5.45313,-3.3086 0.38246,-0.46362 0.35586,0.64968 -0.043,-0.94922 a 10.001,10.001 0 0 1 -0.24609,-3.42187 c 0.87718,-8.72065 -4.8033,-17.89083 -10.79493,-29.04102 -8.37642,0.82728 -16.85567,1.48373 -25.39453,1.05274 a 10.001,10.001 0 0 1 -5.13672,-1.73047 c -15.67298,-10.70792 -25.57687,-25.5189 -35.23828,-38.50586 -9.37992,-12.60857 -18.34741,-23.36488 -30.80664,-29.71094 -5.48108,-1.11459 -10.96924,-1.47709 -16.75,-0.66406 a 10.001,10.001 0 0 1 -2.70703,0.01 c -3.26089,-0.43265 -5.88677,-0.92318 -8.40039,-1.75585 -2.51363,-0.83268 -5.45859,-1.68163 -8.08398,-5.77149 -1.31269,-2.04493 -2.03874,-5.06739 -1.74219,-7.54687 0.29656,-2.47947 1.26193,-4.26109 2.13867,-5.5293 1.75346,-2.53643 3.37516,-3.63508 4.96484,-4.75391 3.4747,-2.44552 7.33065,-4.60563 10.76758,-6.52148 -7.51236,-14.08573 -16.14731,-26.96114 -27.01562,-38.33594 -6.86973,-5.63357 -13.69944,-12.44385 -17.95899,-21.85547 a 10.001,10.001 0 0 1 3.25586,-12.23047 c 1.10516,-0.79808 2.0015,-1.79875 2.98633,-2.71093 -0.29772,-25.78942 7.23207,-47.93469 0.0723,-66.74805 a 10.001,10.001 0 0 1 -0.64454,-4.01172 c 0.0108,-0.23665 0.0344,-0.41288 0.0469,-0.64258 -3.72494,-5.40636 -7.38527,-12.07183 -7.82813,-20.02929 -2.19369,-1.12892 -4.37684,-2.16027 -6.5625,-3.00782 -12.42161,-4.64644 -24.332241,-9.25055 -36.154291,-11.76562 -8.29467,-0.65689 -14.45465,1.40183 -22.11133,4.7207 -7.67001,3.32464 -16.61332,8.0304 -28.33008,10.15625 -7.02847,2.74087 -13.76829,1.73304 -19.947264,-1.58594 -3.420112,-1.83708 -6.986962,-4.79767 -8.742188,-9.65625 -1.755226,-4.85858 -0.62103,-10.84781 2.171875,-15.10937 a 10.001,10.001 0 0 1 1.292969,-1.57422 c -0.920663,-0.33512 -1.845438,-0.59144 -2.759766,-1.02734 -3.416275,-1.62865 -6.866289,-4.1902 -9.228515,-8.12696 -2.36223,-3.93676 -3.195896,-9.1147 -2.275391,-13.91015 a 10.001,10.001 0 0 1 0.712891,-2.2461 c 1.964525,-4.33071 5.742874,-7.63096 9.404297,-9.27344 3.661423,-1.64245 7.150274,-2.05719 10.326171,-2.16406 5.962751,-0.20065 11.198721,0.71323 14.253911,1.01367 -3.40898,-2.96157 -7.59725,-6.48072 -10.84766,-12.24218 A 10.001,10.001 0 0 1 9.87804,390.12493 c -0.959984,-5.40316 0.678541,-12.39402 5.363279,-16.0625 4.68474,-3.66848 9.59166,-3.72289 13.57813,-3.26953 7.97293,0.90671 14.67471,3.51092 20.04883,10.36914 a 10.001,10.001 0 0 1 0.24023,0.32031 c 6.62611,9.19118 14.11641,16.96203 22.875,20.27344 a 10.001,10.001 0 0 1 1.83594,0.91797 c 0.65212,0.41543 3.02414,0.63798 4.32617,0.0801 0.63634,-0.27263 0.87567,-0.22736 0.94922,-0.22461 -1.82328,-9.5811 4.53566,-18.20753 11.50976,-21.64258 7.15918,-3.52621 16.491591,-4.09527 23.980471,1.97852 a 10.001,10.001 0 0 1 0.49414,0.42968 c 1.02246,0.94657 1.91516,2.07375 2.72071,3.27539 -0.9309,-2.02912 -1.84606,-4.07504 -2.43555,-6.35156 -1.48562,-5.73732 -1.29314,-12.74815 1.97265,-18.89453 a 10.001,10.001 0 0 1 11.08985,-5.04883 c 9.55897,2.21857 18.73849,2.0372 25.02539,-0.54492 6.28691,-2.58212 10.51842,-6.65106 12.58789,-16.8457 a 10.001,10.001 0 0 1 0.51953,-1.73633 c 8.32518,-20.74037 3.83173,-44.64405 1.75391,-70.42383 a 10.001,10.001 0 0 1 9,-10.75586 c 7.05948,-0.68724 12.99116,2.37381 17.64453,5.92969 4.65337,3.55587 8.57043,7.96313 12.29687,12.59765 7.45287,9.26907 14.296,19.77657 19.04102,24.97461 a 10.001,10.001 0 0 1 1.37695,1.92188 c 2.38256,4.33042 4.60426,5.68806 6.29688,6.22461 1.69263,0.53655 3.39832,0.37412 5.41015,-0.68945 4.02366,-2.12713 7.97552,-7.96486 6.4668,-15.53711 a 10.001,10.001 0 0 1 -0.0781,-3.46485 c 0.2191,-1.4332 0.34014,-6.71456 0.36914,-12.36328 0.029,-5.64872 0.0656,-11.97159 0.85156,-17.89453 0.393,-2.96147 0.93313,-5.83163 2.10742,-8.80078 1.17428,-2.96916 3.11022,-6.57897 7.49414,-8.83789 4.38391,-2.25893 9.93848,-1.49721 13.54102,0.32031 3.60254,1.81752 6.38853,4.36373 9.43554,7.71094 a 10.001,10.001 0 0 1 1.50782,2.17578 c 2.48753,4.86046 6.2953,9.84813 10.70898,14.31641 2.1642,-5.77344 3.72782,-11.61687 4.48828,-17.45704 -1.45572,-8.18344 -0.72117,-16.45842 3.51758,-24.24023 1.16277,-2.1347 2.70422,-4.3736 5.44336,-6.24609 2.73913,-1.8725 7.09062,-2.92123 10.78711,-2.07813 5.94922,1.35691 9.19469,4.9727 12.01758,9.56836 11.25113,3.53848 21.50473,0.21089 31.34961,-7.50195 10.69143,-8.37606 19.5399,-22.14338 23.16797,-34.27149 a 10.001,10.001 0 0 1 1.08593,-2.41211 c 2.38288,-3.83366 4.68174,-6.86804 7.52149,-9.35742 2.83975,-2.48938 6.69684,-4.66881 11.34179,-4.59961 z M 79.094819,402.52899 c 0.0484,0.25426 0.0786,0.50619 0.13867,0.76172 l -0.12695,-0.76172 c -0.002,-2e-5 -0.01,6e-5 -0.0117,0 z M 334.37607,750.81805 c -0.0844,-0.17378 -0.18242,-0.35719 -0.26367,-0.5293 l 0.55078,1.44727 c -0.0921,-0.313 -0.19095,-0.6134 -0.28711,-0.91797 z M 499.587,744.1286 c 0.21337,0.26021 0.41316,0.51814 0.63672,0.77929 l -0.91211,-1.25 c 0.0922,0.14937 0.18345,0.31835 0.27539,0.47071 z M 705.07724,336.18719 c -0.3489,0.13129 -0.69892,0.25298 -1.04492,0.40625 l 1.54492,-0.53711 c -0.16308,0.0422 -0.33641,0.0885 -0.5,0.13086 z M 401.00107,189.98406 c -0.0234,0.036 -0.0291,0.032 -0.0527,0.0684 -5.13566,15.70583 -15.24685,31.33685 -29.22656,42.28907 -14.57428,11.41801 -34.57725,17.43784 -54.27539,9.24414 a 10.001,10.001 0 0 1 -1.39453,-0.7207 c -0.10242,1.67465 -0.13169,3.22401 0.0703,4.09375 a 10.001,10.001 0 0 1 0.19336,3.40625 c -1.50085,13.04851 -5.86543,25.51966 -11.94336,37.02539 a 10.001,10.001 0 0 1 -14.35547,3.67187 c -9.69328,-6.40492 -17.70638,-15.00957 -23.52929,-24.34375 -0.21036,3.39787 -0.33001,7.12476 -0.34961,10.94531 -0.0252,4.90447 0.006,9.3254 -0.47071,13.58789 2.29105,15.29422 -5.21308,29.15821 -16.93945,35.35743 -6.0906,3.21982 -13.61806,4.34914 -20.80078,2.07226 -6.74903,-2.1394 -12.65095,-7.25921 -16.91211,-14.33984 -6.7312,-7.52751 -13.05816,-17.4947 -19.3457,-25.31445 -0.48335,-0.60114 -0.93509,-1.05611 -1.41407,-1.625 1.86583,18.52374 2.86105,38.37373 -4.81054,58.21093 -3.305,15.08198 -12.81333,25.86062 -24.39453,30.61719 -8.08181,3.31927 -16.76146,4.02682 -25.39258,3.29688 0.81816,1.95192 1.94121,4.15789 3.61718,6.67773 4.58429,6.89255 11.65106,14.43728 16.24415,23.54883 7.209,8.79311 9.80861,19.13378 7.57421,27.80664 -2.3648,9.17903 -8.22391,15.78719 -13.80273,21.42187 a 10.001,10.001 0 0 1 -9.87891,2.57032 10.001,10.001 0 0 1 0.50782,6.07421 c -1.07939,4.65357 1.01295,8.06409 5.98632,14.78907 a 10.001,10.001 0 0 1 1.91016,6.92383 c -0.0586,0.59642 -0.0924,1.24741 -0.13672,1.86914 9.38657,27.79333 -0.60544,53.8845 0.50977,75.10156 a 10.001,10.001 0 0 1 -2.50391,7.1582 c -0.54428,0.61399 -1.16973,1.1769 -1.74609,1.77149 2.46032,3.1564 5.53022,6.15646 9.25781,9.16601 a 10.001,10.001 0 0 1 0.93555,0.85938 c 14.79529,15.42515 25.81813,32.93315 34.91992,51.59375 a 10.001,10.001 0 0 1 -2.63477,12.10742 c -0.3094,0.2545 -0.65603,0.45398 -0.97265,0.70117 2.25638,0.29041 4.4841,0.65858 6.66015,1.14258 a 10.001,10.001 0 0 1 2.15039,0.74414 c 17.96718,8.61431 29.33144,22.99485 39.3086,36.40625 9.3249,12.53461 17.72647,24.15725 28.30664,32.15625 8.06658,0.15219 16.80557,-0.53495 26.05859,-1.54883 a 10.001,10.001 0 0 1 10.07031,5.54297 c 0.81224,1.6587 1.9477,3.5255 2.97852,5.3125 a 10.001,10.001 0 0 1 8.81836,-13.01172 c 15.26661,-1.07772 31.33085,-0.69981 46.41016,5.95313 15.35677,-2.83115 30.38644,2.27989 42.26171,3.49023 6.43357,0.65571 11.51964,0.27135 14.63086,-1.07227 3.11122,-1.34361 5.30715,-3.11832 7.39649,-9.62109 a 10.001,10.001 0 0 1 5.16992,-5.94531 c 16.24238,-7.84932 32.74564,-14.31888 48.40234,-21.45899 a 10.001,10.001 0 0 1 9.24024,0.49219 c 5.49854,3.25179 9.00153,7.38156 11.73437,11.38672 -0.23322,-0.39068 -0.45809,-0.92166 -0.69531,-1.29297 -1.36066,-1.9084 -2.71541,-3.81639 -4.06445,-5.71875 a 10.001,10.001 0 0 1 3.37109,-14.5625 c 6.17377,-3.36691 12.10448,-6.98144 17.74805,-10.96875 18.24503,-17.61205 38.94733,-40.14633 67.76758,-47.63086 -0.17633,-0.0739 -0.35162,-0.12196 -0.52735,-0.19726 -2.76999,-1.18624 -5.49465,-2.51291 -8.15234,-4.50977 -2.65769,-1.99686 -5.66893,-4.93707 -6.79297,-9.72461 a 10.001,10.001 0 0 1 -0.21484,-1.30273 c -2.17624,-22.0312 10.32387,-38.00112 21.99218,-50.56836 9.45779,-10.18643 18.33055,-19.09541 22.99805,-28.63086 -22.53309,-15.13903 -32.21019,-43.02975 -31.45312,-68.37891 -1.94522,-11.02408 1.57289,-20.74771 5.15039,-28.4707 3.71506,-8.01995 7.39019,-14.67997 8.34179,-19.56641 a 10.001,10.001 0 0 1 3.79688,-6.0625 10.001,10.001 0 0 1 -3.9961,-1.51758 c -8.3344,-5.46969 -19.86642,-11.58251 -28.20117,-21.66601 -4.16738,-5.04175 -7.53248,-11.48324 -8.10547,-18.96875 -0.54353,-7.10069 1.55374,-14.60385 5.87891,-22.0332 3.27662,-10.87228 9.60708,-20.88771 13.42383,-29.80079 1.88952,-4.41248 3.03245,-8.33403 3.33203,-11.26953 -10.31912,3.1616 -21.08979,4.37912 -31.57422,2.17383 -13.83092,-2.90919 -26.49395,-12.81116 -33.2832,-29.04101 -13.85197,-22.44076 -16.33584,-47.12245 -18.11328,-70.22461 -1.29613,2.0207 -2.61497,4.22005 -3.91797,6.63476 -5.63315,10.43934 -10.81242,23.27395 -16.83203,33.12696 -3.26244,8.80141 -8.72494,15.61168 -15.66016,19.30468 -7.33018,3.90331 -15.70751,4.1892 -23.00391,1.90039 -14.0711,-4.41396 -25.19026,-18.12916 -25.74023,-35.50195 -2.40065,-7.69464 -3.56491,-17.44908 -5.5918,-26.22656 -0.60113,-2.60321 -1.26605,-4.9335 -1.92187,-6.95704 z m -1.84961,19.26954 c 0.88503,5.0154 1.9258,10.05152 3.44336,15.03515 0.99463,19.40512 13.51089,34.97529 29.86523,40.10547 8.617,2.70307 18.76388,2.38534 27.61914,-2.33008 8.17224,-4.35171 14.42398,-12.23565 18.14649,-21.80664 4.23845,-6.98986 7.87378,-14.6076 11.40039,-22.02929 2.17684,17.36503 6.39432,35.35962 16.82031,52.42578 7.48097,17.47512 21.96329,28.9418 37.38477,32.18555 8.17625,1.71978 16.30724,1.53797 24.21484,0.16406 -0.10466,0.25388 -0.14297,0.44014 -0.25391,0.69922 -3.49953,8.17229 -9.75546,17.93651 -13.43164,29.79882 -4.54254,8.04213 -6.97132,16.57845 -6.33789,24.85352 0.68552,8.9556 4.74693,16.62854 9.46289,22.33398 8.87369,10.73554 19.83041,16.68447 27.84571,21.7793 a 16.0016,16.0016 0 0 0 -0.70899,2.49805 c -0.666,3.41988 -4.00784,9.79674 -7.89648,18.1914 -3.68984,7.9655 -7.73612,18.89596 -5.69141,31.48243 -0.58381,25.1151 8.32765,52.63015 29.46484,69.49414 -4.51046,6.95553 -11.37903,14.2809 -19.42187,22.94336 -11.89549,12.81194 -25.98327,30.77308 -23.56641,55.24023 a 16.0016,16.0016 0 0 0 0.34571,2.08399 c 1.3038,5.55317 4.31618,9.11973 7.17578,11.60742 -24.05718,10.23618 -42.01114,29.48505 -57.42774,44.40625 -5.31657,3.73368 -10.92723,7.16293 -16.82422,10.3789 a 16.0016,16.0016 0 0 0 -7.46875,8.90235 16.0016,16.0016 0 0 0 -11.73242,0.60156 c -15.45918,7.05003 -32.00635,13.53261 -48.52539,21.51562 a 16.0016,16.0016 0 0 0 -8.26953,9.51172 c -1.69696,5.28153 -2.48243,5.26601 -4.06445,5.94922 -1.58201,0.68321 -5.65894,1.22138 -11.64453,0.61133 -10.69534,-1.09008 -25.34183,-6.48272 -42.20703,-3.79492 -15.90459,-6.52402 -32.39439,-6.73 -47.49415,-5.66406 a 16.0016,16.0016 0 0 0 -10.77148,5.28906 16.0016,16.0016 0 0 0 -11.32617,-3.11328 c -8.45075,0.92597 -16.19794,1.48529 -23.31055,1.49218 -8.91667,-7.25709 -16.66962,-17.72681 -25.58789,-29.71484 -10.07189,-13.53873 -22.08636,-28.91541 -41.52734,-38.23633 a 16.0016,16.0016 0 0 0 -1.38868,-0.58203 16.0016,16.0016 0 0 0 -1.01757,-11.33398 C 185.15472,613.18234 173.79585,595.09764 158.462,579.11102 a 16.0016,16.0016 0 0 0 -1.49609,-1.37305 c -2.02079,-1.63153 -3.50244,-3.15847 -5.03711,-4.69922 a 16.0016,16.0016 0 0 0 2.25196,-9.04297 c -1.00847,-19.18619 9.10648,-45.70153 -0.43946,-75.42773 0.0186,-0.20775 0.0263,-0.43111 0.0469,-0.64062 a 16.0016,16.0016 0 0 0 -3.06055,-11.07813 c -4.83092,-6.53235 -5.45041,-7.77376 -4.96484,-9.86719 a 16.0016,16.0016 0 0 0 0.27343,-1.52343 16.0016,16.0016 0 0 0 7.51758,-4.25586 c 5.85331,-5.91192 12.51339,-13.13765 15.34961,-24.14649 2.68258,-10.41251 -0.59239,-23.24879 -8.69531,-33.18555 -4.47159,-8.45039 -9.85035,-14.78609 -13.9336,-20.32812 5.73138,-0.43141 11.46225,-1.46482 17.05469,-3.76172 13.06975,-5.36794 24.0648,-17.98904 27.83985,-34.40625 5.24629,-13.74899 6.66418,-27.30186 6.45703,-40.23242 2.74536,3.74553 5.6199,7.4744 8.6914,10.93164 4.86006,7.75781 11.7285,13.77051 19.79688,16.32813 8.82975,2.79897 18.10179,1.37842 25.41601,-2.48829 13.86306,-7.32878 22.42101,-23.31281 20.15235,-40.72656 0.25395,-2.53785 0.43478,-5.05843 0.44531,-7.47461 4.36369,4.55773 9.17873,8.78519 14.58203,12.35547 a 16.0016,16.0016 0 0 0 22.9668,-5.875 c 6.30273,-11.93127 10.89159,-24.96886 12.53515,-38.75977 19.60227,5.17638 39.1626,-1.36316 53.21094,-12.36914 9.83386,-7.7042 17.82726,-17.35135 23.72852,-27.81054 z m 187.23633,129.94922 c -0.67114,7.45501 2.04404,14.6993 5.07812,19.01953 3.1358,4.46508 6.30449,7.22939 8.94727,9.41406 -0.0584,0.097 -0.0778,0.0597 -0.2168,0.41602 -0.48312,1.23818 -1.92371,2.21138 -1.70117,2.15429 a 16.0016,16.0016 0 0 0 -2.48047,0.87696 c -6.01197,-4.02207 -11.42732,-7.83183 -13.86524,-10.78125 -1.79016,-2.16576 -2.13534,-3.27354 -2.2207,-4.38868 -0.0854,-1.11513 0.002,-3.1881 2.73047,-7.61328 a 16.0016,16.0016 0 0 0 1.81445,-4.17969 c 0.35047,-1.28237 1.02961,-2.95736 1.91407,-4.91796 z m 27.69921,3.80859 c -0.0116,0.48588 0.0826,0.9456 0.16407,1.4082 l -0.16407,-1.4082 z m 0.16407,1.4082 0.0664,0.58008 c 0.01,0.01 0.0164,0.0193 0.0254,0.0293 -0.0161,-0.20762 -0.0562,-0.40729 -0.0918,-0.60938 z m 50.84375,4 c -4.86315,5.67086 -10.78417,10.73042 -18.38867,14.14258 -6.80673,3.39144 -14.45637,3.16292 -20.79102,-0.0137 0.89066,5.14627 0.27073,10.41993 -1.49805,14.95312 -1.01768,2.60821 -2.49121,5.01588 -4.17187,7.28516 5.79922,-3.02168 11.79975,-5.8621 18.25586,-8.10156 a 10.001,10.001 0 0 1 0.5625,-0.17774 c 15.45036,-4.35882 29.51039,-0.47007 41.51367,2.87696 -0.53738,-0.5562 -1.09823,-0.91981 -1.61914,-1.5918 a 10.001,10.001 0 0 1 0.28906,-12.60938 c 0.63976,-0.75142 1.37503,-1.22704 2.05664,-1.86523 -1.87775,0.0723 -3.77329,-0.0781 -5.625,-0.70703 -4.61004,-1.56575 -7.89529,-5.38358 -9.36133,-9.08203 -0.66885,-1.68734 -1.02819,-3.40118 -1.22265,-5.10938 z m -2.44141,10.98438 c 2.02357,3.13316 5.09418,5.94791 8.85938,7.79687 a 16.0016,16.0016 0 0 0 -0.60352,3.53125 c -7.41036,-1.67303 -15.51462,-2.7966 -24.44531,-1.74218 0.95176,-0.35588 1.92523,-0.57805 2.85547,-1.03907 5.11228,-2.31311 9.48938,-5.25294 13.33398,-8.54687 z m -30.54101,11.1582 c 1.50522,0.2198 2.99866,0.43953 4.52929,0.41992 a 16.0016,16.0016 0 0 0 -0.10742,0.0332 c -1.64491,0.57058 -3.14482,1.29017 -4.73633,1.91796 0.13093,-0.78422 0.23651,-1.56947 0.31446,-2.37109 z m -512.29883,19.98633 c 0.72406,1.91735 1.20453,3.89816 1.17383,5.81641 -0.0745,4.65889 -1.8627,8.09044 -3.5,10.72851 -3.27459,5.27613 -6.75151,9.28476 -6.84571,9.49414 a 10.001,10.001 0 0 1 -0.19922,0.41797 c -1.01028,1.99346 -0.7647,3.83399 0.81641,6.24414 1.5811,2.41015 4.59362,4.30782 6.86719,4.57617 a 10.001,10.001 0 0 1 2.88867,0.79297 c 6.28124,2.79187 12.50078,5.77997 18.67773,8.875 2.00602,-2.62692 3.55665,-5.07405 4.03321,-6.92383 0.79342,-3.07968 0.91855,-5.33239 -4.18555,-10.98046 a 10.001,10.001 0 0 1 -1.58789,-2.36329 c -2.3546,-4.88513 -9.3736,-12.98964 -15.33008,-21.94531 -0.99836,-1.50105 -1.89425,-3.12847 -2.80859,-4.73242 z m -43.724611,6.48047 c 0.0877,0.0125 0.28244,0.15871 0.95312,0.58594 a 16.0016,16.0016 0 0 0 -0.98828,-0.5625 c 0.008,-0.002 0.0252,-0.0249 0.0352,-0.0234 z m -27.78711,10.22265 c 0.004,0.0107 0.006,0.0245 0.01,0.0352 0.004,0.0114 0.0113,0.0197 0.0156,0.0312 l -0.0254,-0.0664 z m 75.683591,0.24805 c 3.94837,5.3686 7.45487,10.03808 8.56055,12.33203 a 16.0016,16.0016 0 0 0 2.54297,3.7793 c 4.16912,4.61344 3.14817,4.21301 2.82617,5.46289 -0.0281,0.10884 -0.29416,0.48082 -0.35352,0.62891 -4.68025,-2.2706 -9.38403,-4.46611 -14.10937,-6.56641 a 16.0016,16.0016 0 0 0 -4.62305,-1.26953 c -0.23347,-0.0276 -1.90578,-0.91904 -2.55469,-1.9082 -0.2695,-0.41083 -0.33332,-0.43668 -0.38476,-0.43946 a 16.0016,16.0016 0 0 0 0.22461,-0.4707 c -0.74416,1.65458 2.61793,-2.58014 6.47265,-8.79102 0.46713,-0.75265 0.91774,-1.84753 1.39844,-2.75781 z m -31.382811,0.46485 -0.20117,0.41992 c 0.0368,-0.0818 0.0801,-0.136 0.11719,-0.2168 0.0331,-0.0669 0.0501,-0.13632 0.084,-0.20312 z m -43.21875,3.15429 c 0.72413,3.93619 0.36644,8.44151 -2.66992,12.08789 -3.03418,3.64377 -6.59978,4.69756 -9.63477,4.98438 0.67795,0.59654 1.36973,1.04341 2.0293,1.83789 2.2768,2.74249 3.74816,8.54776 2.10742,13.18555 1.92974,-0.85731 3.74785,-1.63156 5.81445,-2.52735 8.73456,-3.78608 19.32389,-7.47206 32.34571,-6.2832 a 10.001,10.001 0 0 1 1.11133,0.16406 c 6.49496,1.33952 12.71025,3.17562 18.75781,5.18164 -1.75991,-1.67442 -3.37433,-3.49483 -4.70899,-5.5293 -2.89525,-4.41337 -4.45245,-9.98257 -4.32812,-15.69726 -1.34908,1.01707 -2.72994,1.99152 -4.18555,2.61523 -6.93412,2.97119 -14.95048,3.03934 -22.02929,-1.05078 -5.55945,-2.24439 -10.29627,-5.43178 -14.60938,-8.96875 z m 14.60938,8.96875 c 0.30653,0.12375 0.60434,0.25717 0.91601,0.375 l -1.83594,-0.91992 c 0.30379,0.19352 0.61242,0.36725 0.91993,0.54492 z m -9.71485,1.87696 c 2.25337,1.29383 4.62097,2.47856 7.14453,3.50781 2.61565,1.46642 5.29207,2.33197 7.98828,2.9414 -8.61276,0.7311 -16.00139,3.20192 -22.26172,5.77539 -0.22249,-0.9761 -0.46312,-1.92928 -0.77929,-2.81836 1.6801,-1.04352 3.35528,-2.40497 4.95508,-4.32617 1.34006,-1.60928 2.26947,-3.32911 2.95312,-5.08007 z m 30.91406,5.67187 c 0.18517,0.69627 0.37796,1.38815 0.60352,2.06445 -1.36295,-0.3235 -2.67225,-0.71291 -4.0625,-1 1.17769,-0.23623 2.30705,-0.69768 3.45898,-1.06445 z M 598.13779,624.43328 c 0.52227,0.50323 0.84646,0.38905 0.54297,0.22266 -0.0732,-0.0402 -0.43738,-0.17096 -0.54297,-0.22266 z m -85.5,102.3086 c 0.9171,2.12225 1.77964,3.99243 2.77929,5.16016 a 10.001,10.001 0 0 1 0.91407,1.25 c 4.8836,7.91106 8.19236,14.94232 12.04687,18.64648 a 10.001,10.001 0 0 1 0.0918,0.0918 c 3.425,3.37844 6.99994,7.1784 10.32226,9.95703 0.85237,0.71288 1.51865,1.05108 2.29102,1.5664 7.74225,-11.21243 15.18424,-23.0197 23.06836,-34.93554 -2.93963,2.19737 -6.07657,4.58112 -9.51367,6.83593 -4.04648,2.65458 -8.55597,5.24694 -14.46094,5.91797 -5.26246,0.59802 -11.42206,-1.45344 -15.98242,-5.38476 -4.62214,-2.55391 -8.40657,-5.66711 -11.55664,-9.10547 z m 18.82421,19.40625 c 3.21307,0.8836 6.45855,1.37834 9.39258,1.04492 1.63896,-0.18625 3.12333,-0.51942 4.55664,-0.89648 -1.84014,2.85054 -3.72362,5.4739 -5.56836,8.24218 -2.29389,-2.17064 -4.58799,-4.38465 -7.1582,-6.91992 a 16.0016,16.0016 0 0 0 -0.15039,-0.14648 c -0.33585,-0.32275 -0.71545,-0.88056 -1.07227,-1.32422 z m -218.89843,5.93359 c 1.21272,4.57049 1.82367,9.48601 1.4375,14.83008 0.80101,5.95906 -0.83727,12.22868 -4.20313,16.30859 -3.78191,4.58423 -8.41236,6.95178 -12.84375,8.89649 -3.76265,1.65123 -7.47037,2.98228 -10.91406,4.24805 14.28627,-0.11181 28.24065,0.0893 41.85937,-0.28711 -0.0108,-0.92905 0.0684,-1.67323 -0.0645,-2.77735 -0.51752,-4.30001 -1.75426,-9.36725 -2.71875,-14.08008 a 10.001,10.001 0 0 1 -0.0254,-0.12695 c -1.00321,-5.24932 -5.09498,-11.85731 -9.06445,-20.26562 a 10.001,10.001 0 0 1 -0.55078,-1.44727 c -0.44484,-1.51213 -1.58689,-3.30822 -2.91211,-5.29883 z m 6.10742,26.51563 c 0.17768,0.54157 0.43986,1.16529 0.52734,1.62304 a 16.0016,16.0016 0 0 0 0.0391,0.20313 c 0.72371,3.5363 1.32976,6.66721 1.89843,9.77344 -3.32655,0.0369 -6.55222,0.18565 -9.94531,0.17382 1.09751,-0.99593 2.18666,-2.05967 3.23633,-3.33203 1.87899,-2.2776 3.23308,-5.26658 4.24414,-8.4414 z"
                                   id="path4385"
                                   inkscape:connector-curvature="0" />
                                <path
                                   style="fill:url(#radialGradient4219);fill-opacity:1;fill-rule:evenodd;stroke:none;stroke-width:1px;stroke-linecap:butt;stroke-linejoin:miter;stroke-opacity:1"
                                   d="m 402.37542,175.96211 c -2.76034,-0.0411 -6.10421,2.61357 -10.22071,9.23633 -8.52594,28.50082 -38.73908,60.51694 -70.84961,47.16016 -11.33378,-20.76683 -17.6052,3.23995 -14.90429,14.86914 -1.33103,11.57183 -5.24677,22.88796 -10.85157,33.49804 -9.96286,-6.58301 -18.38527,-16.21241 -23.35742,-25.92773 -20.59228,-22.62111 -14.62439,22.24825 -16.51953,34.64453 4.69551,23.56661 -23.38193,41.05836 -36.74219,16.77539 -11.67088,-12.78518 -26.64866,-41.65199 -40.6289,-40.29101 2.01007,24.93964 7.2656,50.77025 -2.44141,74.95312 -5.21348,25.6829 -27.801,30.2191 -49.67383,25.14258 -8.04982,15.15033 13.86764,32.49919 20.79297,46.86719 18.16842,20.10469 -3.02445,35.06835 -15.98242,47.75781 -3.79977,10.24917 1.1556,17.97103 6.88672,25.7207 -0.11694,1.18976 -0.2172,2.44597 -0.28125,3.85352 9.27525,24.37187 -0.68882,49.7363 0.61914,74.61914 -2.114,2.3848 -4.4937,4.57267 -7.16797,6.5039 3.46803,7.66287 9.31484,13.54646 15.88086,18.84766 13.8977,14.48934 24.35981,31.03817 33.14844,49.05664 -9.96637,8.19808 -34.67421,15.30171 -11.4961,18.37695 7.43425,-1.04558 14.53548,-0.5679 21.36524,0.95118 31.02174,14.87326 41.11313,50.89055 68.46289,69.57617 31.41634,1.58572 68.03411,-11.98947 96.6289,2.63281 24.12791,-6.67734 64.01893,19.59216 74.99219,-14.56055 29.33961,-14.17869 60.94909,-24.25193 87.70313,-43.32422 22.02836,-21.1917 45.11559,-46.54256 78.27734,-47.95703 31.62682,-10.27986 -19.78531,-12.35658 -22.56445,-24.19336 -3.55035,-35.94257 39.42112,-50.60068 47.3457,-82.61718 -24.02281,-11.40005 -34.8928,-39.47134 -33.78906,-64.80469 -4.91059,-22.97161 23.31938,-40.4843 10.45898,-62.06641 -17.53145,-11.80374 -44.98053,-24.47407 -28.4082,-51.35351 4.90007,-17.92923 26.35256,-42.44241 13.92578,-58.10352 -23.99343,10.44002 -50.83809,10.01638 -62.24023,-18.31445 -16.23474,-25.66219 -15.67178,-56.37526 -18.63868,-85.38086 -16.30896,1.39473 -27.37196,37.64158 -38.04492,54.75976 -10.17918,30.65165 -46.05312,16.53867 -45.65234,-11.46093 -3.74336,-10.78565 -6.17487,-45.30033 -16.0332,-45.44727 z"
                                   id="path3361"
                                   inkscape:connector-curvature="0" />
                                <path
                                   style="opacity:1;fill:#ffa400;fill-opacity:1;stroke:none;stroke-width:2;stroke-linecap:round;stroke-linejoin:round;stroke-miterlimit:4;stroke-dasharray:none;stroke-dashoffset:0;stroke-opacity:1"
                                   d="M 576.04802,495.36728 A 204.51472,204.51472 0 0 1 371.53329,699.882 204.51472,204.51472 0 0 1 167.01857,495.36728 204.51472,204.51472 0 0 1 371.53329,290.85255 204.51472,204.51472 0 0 1 576.04802,495.36728 Z"
                                   id="path3336" />
                                <path
                                   style="opacity:1;fill:url(#radialGradient3375);fill-opacity:1;stroke:none;stroke-width:2;stroke-linecap:round;stroke-linejoin:round;stroke-miterlimit:4;stroke-dasharray:none;stroke-dashoffset:0;stroke-opacity:1"
                                   d="M 545.46532,495.36728 A 173.40202,173.40202 0 0 1 372.06329,668.7693 173.40202,173.40202 0 0 1 198.66127,495.36728 173.40202,173.40202 0 0 1 372.06329,321.96526 173.40202,173.40202 0 0 1 545.46532,495.36728 Z"
                                   id="circle3365" />
                                <path
                                   style="opacity:1;fill:#800000;fill-opacity:1;stroke:none;stroke-width:2;stroke-linecap:round;stroke-linejoin:round;stroke-miterlimit:4;stroke-dasharray:none;stroke-dashoffset:0;stroke-opacity:1"
                                   d="m 343.23072,418.49437 c 0,14.76132 -8.37228,-16.5211 -29.43324,-16.5211 -23.46366,0 -29.43324,31.28242 -29.43324,16.5211 0,-14.76133 13.17772,-26.12707 29.43324,-26.12707 16.25553,0 29.43324,11.36574 29.43324,26.12707 z"
                                   id="path3338"
                                   inkscape:connector-curvature="0"
                                   sodipodi:nodetypes="sssss" />
                                <path
                                   sodipodi:nodetypes="sssss"
                                   inkscape:connector-curvature="0"
                                   id="path3341"
                                   d="m 400.89584,418.49437 c 0,14.76132 8.37229,-16.5211 29.43324,-16.5211 23.46367,0 29.43324,31.28242 29.43324,16.5211 0,-14.76133 -13.17771,-26.12707 -29.43324,-26.12707 -16.25552,0 -29.43324,11.36574 -29.43324,26.12707 z"
                                   style="opacity:1;fill:#800000;fill-opacity:1;stroke:none;stroke-width:2;stroke-linecap:round;stroke-linejoin:round;stroke-miterlimit:4;stroke-dasharray:none;stroke-dashoffset:0;stroke-opacity:1" />
                                <path
                                   style="fill:#ffa400;fill-opacity:1;fill-rule:evenodd;stroke:none;stroke-width:1px;stroke-linecap:butt;stroke-linejoin:miter;stroke-opacity:1"
                                   d="m 335.01604,664.36728 c -7.29775,1.31076 -16.97201,-2.87285 -22.49482,2.59005 -7.9876,10.24843 -7.91785,23.84295 -7.45745,36.18749 -2.11298,10.66355 5.63887,19.14439 8.56358,28.84056 2.15946,8.30576 9.03241,14.32325 11.46126,22.57934 3.54057,7.49985 8.32226,14.70246 9.84245,22.65693 1.78868,8.73973 5.33572,21.39867 1.43188,28.70744 -17.70664,0.95775 -35.5734,0.19274 -53.3469,0.43819 -6.94714,-1.07221 -23.42864,-4.6459 -13.19226,-13.76786 11.97502,-8.04797 38.29673,-9.14902 34.22602,-25.4685 1.62279,-16.1334 -9.79778,-28.93258 -16.03376,-42.76364 -3.06451,-7.79741 -6.24207,-15.55839 -9.01164,-23.41061 -6.70712,-15.60083 -8.86456,-32.71077 -7.99125,-49.5819 3.16164,-6.81756 11.27925,-12.45264 18.03914,-16.6605 7.48613,-1.87485 16.83183,-2.88759 23.78306,1.32621 9.15781,5.38867 14.9792,15.00489 24.19795,20.25457 2.64013,2.67588 3.39401,8.57428 -2.01726,8.07223 z"
                                   id="path4202"
                                   inkscape:connector-curvature="0"
                                   sodipodi:nodetypes="ccccccccccccccccc" />
                                <path
                                   inkscape:connector-curvature="0"
                                   id="path4207"
                                   d="m 412.81701,688.55453 c 5.0778,-5.40289 20.84555,-6.7937 28.43624,-8.44478 12.94622,-1.108 24.30421,6.36273 34.40137,13.47941 10.09112,4.04291 12.97383,15.16522 19.50728,22.90368 5.78513,6.33886 7.08208,15.38129 12.67869,21.91889 4.35652,7.0572 7.78717,14.99275 13.62638,20.60418 6.35108,6.26466 15.02884,16.14022 23.28417,16.85274 10.45721,-14.32093 19.55758,-29.7154 29.45414,-44.48075 2.88904,-6.40827 8.87965,-22.1729 -4.34839,-18.56559 -13.27571,5.65036 -28.55032,27.115 -40.01111,14.80458 -14.40913,-7.43621 -18.91149,-23.98846 -27.1057,-36.7572 -4.86552,-6.82037 -9.63887,-13.71565 -14.71116,-20.31866 -9.42089,-14.12863 -22.5875,-25.26618 -37.2064,-33.7329 -7.43888,-1.06686 -16.58869,2.6655 -23.80182,6.0379 -5.65338,5.25323 -11.59798,12.53537 -11.85572,20.65998 -0.47598,10.61492 -9.58893,11.73802 -10.21465,22.32825 0.80363,3.67217 5.3371,7.52017 7.86668,2.71027 z"
                                   style="fill:#ffa400;fill-opacity:1;fill-rule:evenodd;stroke:none;stroke-width:1px;stroke-linecap:butt;stroke-linejoin:miter;stroke-opacity:1"
                                   sodipodi:nodetypes="ccccccccccccccccc" />
                                <path
                                   style="color:#000000;font-style:normal;font-variant:normal;font-weight:normal;font-stretch:normal;font-size:medium;line-height:normal;font-family:sans-serif;text-indent:0;text-align:start;text-decoration:none;text-decoration-line:none;text-decoration-style:solid;text-decoration-color:#000000;letter-spacing:normal;word-spacing:normal;text-transform:none;direction:ltr;block-progression:tb;writing-mode:lr-tb;baseline-shift:baseline;text-anchor:start;white-space:normal;clip-rule:nonzero;display:inline;overflow:visible;visibility:visible;opacity:1;isolation:auto;mix-blend-mode:normal;color-interpolation:sRGB;color-interpolation-filters:linearRGB;solid-color:#000000;solid-opacity:1;fill:#800000;fill-opacity:1;fill-rule:evenodd;stroke:none;stroke-width:1.30431533;stroke-linecap:round;stroke-linejoin:round;stroke-miterlimit:4;stroke-dasharray:none;stroke-dashoffset:0;stroke-opacity:1;color-rendering:auto;image-rendering:auto;shape-rendering:auto;text-rendering:auto;enable-background:accumulate"
                                   d="m 314.0625,387.33594 c -12.57706,0 -25.17578,9.85937 -25.17578,9.85937 a 0.65222809,0.65222809 0 1 0 0.79883,1.03125 c 0,0 12.49103,-9.58593 24.37695,-9.58594 12.40704,0 24.36719,9.57813 24.36719,9.57813 a 0.65276581,0.65276581 0 0 0 0.82031,-1.01563 c 0,0 -12.11684,-9.86718 -25.1875,-9.86718 z"
                                   id="path4256"
                                   inkscape:connector-curvature="0" />
                                <path
                                   style="color:#000000;font-style:normal;font-variant:normal;font-weight:normal;font-stretch:normal;font-size:medium;line-height:normal;font-family:sans-serif;text-indent:0;text-align:start;text-decoration:none;text-decoration-line:none;text-decoration-style:solid;text-decoration-color:#000000;letter-spacing:normal;word-spacing:normal;text-transform:none;direction:ltr;block-progression:tb;writing-mode:lr-tb;baseline-shift:baseline;text-anchor:start;white-space:normal;clip-rule:nonzero;display:inline;overflow:visible;visibility:visible;opacity:1;isolation:auto;mix-blend-mode:normal;color-interpolation:sRGB;color-interpolation-filters:linearRGB;solid-color:#000000;solid-opacity:1;fill:#800000;fill-opacity:1;fill-rule:evenodd;stroke:none;stroke-width:1.30431533;stroke-linecap:round;stroke-linejoin:round;stroke-miterlimit:4;stroke-dasharray:none;stroke-dashoffset:0;stroke-opacity:1;color-rendering:auto;image-rendering:auto;shape-rendering:auto;text-rendering:auto;enable-background:accumulate"
                                   d="m 430.0625,387.33594 c -12.57706,0 -25.17578,9.85937 -25.17578,9.85937 a 0.65222809,0.65222809 0 1 0 0.79883,1.03125 c 0,0 12.49103,-9.58593 24.37695,-9.58594 12.40704,0 24.36719,9.57813 24.36719,9.57813 a 0.65276581,0.65276581 0 0 0 0.82031,-1.01563 c 0,0 -12.11684,-9.86718 -25.1875,-9.86718 z"
                                   id="path4258"
                                   inkscape:connector-curvature="0" />
                                <path
                                   style="fill:#ffa400;fill-opacity:1;fill-rule:evenodd;stroke:none;stroke-width:1px;stroke-linecap:butt;stroke-linejoin:miter;stroke-opacity:1"
                                   d="m 602.4903,385.71119 c 11.54415,-2.96158 18.71172,-19.07752 10.27247,-28.57633 -5.32766,-4.36559 -13.18938,-11.01513 -9.91669,-18.66496 5.86145,-7.72459 18.85869,-4.4752 21.25819,4.78602 -0.227,9.53464 10.21071,14.42086 18.25999,10.33529 13.30191,-5.83735 21.22546,-18.94725 27.7438,-31.28243 4.11784,-5.62316 17.14837,-12.63139 20.11306,-2.88928 -0.46429,8.15663 -8.54154,13.01579 -12.16922,19.81245 -5.8612,6.08796 -2.87795,17.85819 6.87432,13.10181 7.59912,-2.77026 15.36211,-4.56845 23.17564,-6.59067 9.51541,-4.21511 18.27665,7.86777 8.04939,13.86095 -8.54943,6.80757 -21.90719,3.41969 -29.27002,12.06776 3.89388,5.02335 17.01727,5.04103 17.01727,5.04103 9.84385,-0.14453 15.28728,13.027 4.83126,17.3039 -8.22997,1.95467 -13.1392,-0.76393 -21.32231,-2.48475 -14.84602,-3.34201 -30.31082,-9.70968 -45.61109,-5.39322 -14.31347,4.965 -27.24057,13.15034 -40.13811,20.93491 -17.19871,12.07979 -31.41575,30.08199 -52.92953,34.61329 -4.64241,0.87306 -19.41032,3.39867 -12.2184,-4.49988 5.42694,-6.38108 14.42608,-8.46508 19.31883,-15.4373 14.34665,-13.48361 30.22716,-25.23792 46.66115,-36.03859 z"
                                   id="path4289"
                                   inkscape:connector-curvature="0"
                                   sodipodi:nodetypes="ccccccccccccccccccccc" />
                                <path
                                   style="fill:#ffa400;fill-opacity:1;fill-rule:evenodd;stroke:none;stroke-width:1px;stroke-linecap:butt;stroke-linejoin:miter;stroke-opacity:1"
                                   d="m 116.97358,437.76214 c -11.34748,-1.33933 -20.995699,-14.29409 -15.4332,-25.26992 2.98285,-6.63193 14.6807,-14.52456 6.76382,-21.85381 -7.25512,-5.88419 -21.670737,0.36231 -19.3177,10.36897 1.055726,10.64596 -12.571927,15.17029 -20.521083,10.10653 -11.674171,-4.41373 -20.351404,-13.93199 -27.45008,-23.77871 -4.842427,-6.17967 -23.551744,-11.77333 -21.273949,1.04701 4.888477,8.66486 15.585052,12.80454 19.255059,22.48566 4.549756,11.74934 -11.375399,6.49777 -17.108792,4.73141 -7.707602,-0.58488 -21.12479037,-3.79098 -24.8828174,4.49338 -2.1140437,11.01358 11.4602715,14.51021 19.8580514,12.44375 5.068938,-2.12618 17.718825,2.54093 15.127881,7.3805 -10.303549,0.73659 -15.767758,1.16986 -23.4725286,8.41251 -6.1744271,9.42124 8.7229396,14.79186 15.8671546,11.15433 20.473007,-3.52002 32.535287,-17.08337 54.101593,-15.11441 13.183711,2.71899 25.798041,7.68262 38.370021,12.38449 15.29171,5.92233 27.66262,17.27387 43.07333,22.95 10.58816,4.32335 22.74161,6.46015 33.79795,2.58005 -3.64856,-9.02217 -15.18178,-8.36845 -21.64601,-14.34981 -17.2481,-11.97555 -35.94833,-21.65558 -55.1087,-30.17193 z"
                                   id="path4296"
                                   inkscape:connector-curvature="0"
                                   sodipodi:nodetypes="cccccccccccccccccccc" />
                                <path
                                   style="opacity:1;fill:#ff1d1d;fill-opacity:0.32919258;stroke:none;stroke-width:4;stroke-linecap:round;stroke-linejoin:round;stroke-miterlimit:4;stroke-dasharray:none;stroke-dashoffset:0;stroke-opacity:1"
                                   d="m 273.36123,421.91608 a 36.769554,31.112698 0 0 1 -36.76956,31.11269 36.769554,31.112698 0 0 1 -36.76955,-31.11269 36.769554,31.112698 0 0 1 36.76955,-31.1127 36.769554,31.112698 0 0 1 36.76956,31.1127 z"
                                   id="path4181" />
                                <path
                                   style="opacity:1;fill:#ff1d1d;fill-opacity:0.32919258;stroke:none;stroke-width:4;stroke-linecap:round;stroke-linejoin:round;stroke-miterlimit:4;stroke-dasharray:none;stroke-dashoffset:0;stroke-opacity:1"
                                   d="m 544.30444,421.91608 a 36.769554,31.112698 0 0 1 -36.76956,31.11269 36.769554,31.112698 0 0 1 -36.76955,-31.11269 36.769554,31.112698 0 0 1 36.76955,-31.1127 36.769554,31.112698 0 0 1 36.76956,31.1127 z"
                                   id="ellipse4183" />
                                <path
                                   style="color:#000000;font-style:normal;font-variant:normal;font-weight:normal;font-stretch:normal;font-size:medium;line-height:normal;font-family:sans-serif;text-indent:0;text-align:start;text-decoration:none;text-decoration-line:none;text-decoration-style:solid;text-decoration-color:#000000;letter-spacing:normal;word-spacing:normal;text-transform:none;direction:ltr;block-progression:tb;writing-mode:lr-tb;baseline-shift:baseline;text-anchor:start;white-space:normal;clip-rule:nonzero;display:inline;overflow:visible;visibility:visible;opacity:1;isolation:auto;mix-blend-mode:normal;color-interpolation:sRGB;color-interpolation-filters:linearRGB;solid-color:#000000;solid-opacity:1;fill:#800000;fill-opacity:1;fill-rule:evenodd;stroke:none;stroke-width:10;stroke-linecap:round;stroke-linejoin:round;stroke-miterlimit:4;stroke-dasharray:none;stroke-dashoffset:0;stroke-opacity:1;color-rendering:auto;image-rendering:auto;shape-rendering:auto;text-rendering:auto;enable-background:accumulate"
                                   d="m 225.38477,447.33594 a 5.0005,5.0005 0 0 0 -2.05274,9.50586 c 0,0 74.70163,37.52539 148.73047,37.52539 76.96092,0 148.80664,-37.56446 148.80664,-37.56446 a 5.0005,5.0005 0 1 0 -4.61133,-8.87109 c 0,0 -70.50915,36.43555 -144.19531,36.43555 -70.61824,0 -144.26758,-36.47461 -144.26758,-36.47461 a 5.0005,5.0005 0 0 0 -2.41015,-0.55664 z"
                                   id="path3345"
                                   inkscape:connector-curvature="0" />
                                <path
                                   style="color:#000000;font-style:normal;font-variant:normal;font-weight:normal;font-stretch:normal;font-size:medium;line-height:normal;font-family:sans-serif;text-indent:0;text-align:start;text-decoration:none;text-decoration-line:none;text-decoration-style:solid;text-decoration-color:#000000;letter-spacing:normal;word-spacing:normal;text-transform:none;direction:ltr;block-progression:tb;writing-mode:lr-tb;baseline-shift:baseline;text-anchor:start;white-space:normal;clip-rule:nonzero;display:inline;overflow:visible;visibility:visible;opacity:1;isolation:auto;mix-blend-mode:normal;color-interpolation:sRGB;color-interpolation-filters:linearRGB;solid-color:#000000;solid-opacity:1;fill:#800000;fill-opacity:1;fill-rule:evenodd;stroke:none;stroke-width:4;stroke-linecap:round;stroke-linejoin:round;stroke-miterlimit:4;stroke-dasharray:none;stroke-dashoffset:0;stroke-opacity:1;color-rendering:auto;image-rendering:auto;shape-rendering:auto;text-rendering:auto;enable-background:accumulate"
                                   d="m 231.05469,430.35742 a 2.0002,2.0002 0 0 0 -0.72266,0.13086 c -11.34416,4.13316 -17.0049,9.51185 -19.72851,15.98047 -2.72362,6.46862 -2.64508,13.61888 -3.57422,21.66992 a 2.0004,2.0004 0 1 0 3.97461,0.45703 c 0.95954,-8.3145 1.00097,-15.14463 3.28711,-20.57422 2.28613,-5.42958 6.68267,-9.86691 17.41015,-13.77539 a 2.0002,2.0002 0 0 0 -0.64648,-3.88867 z"
                                   id="path3351"
                                   inkscape:connector-curvature="0" />
                                <path
                                   style="color:#000000;font-style:normal;font-variant:normal;font-weight:normal;font-stretch:normal;font-size:medium;line-height:normal;font-family:sans-serif;text-indent:0;text-align:start;text-decoration:none;text-decoration-line:none;text-decoration-style:solid;text-decoration-color:#000000;letter-spacing:normal;word-spacing:normal;text-transform:none;direction:ltr;block-progression:tb;writing-mode:lr-tb;baseline-shift:baseline;text-anchor:start;white-space:normal;clip-rule:nonzero;display:inline;overflow:visible;visibility:visible;opacity:1;isolation:auto;mix-blend-mode:normal;color-interpolation:sRGB;color-interpolation-filters:linearRGB;solid-color:#000000;solid-opacity:1;fill:#800000;fill-opacity:1;fill-rule:evenodd;stroke:none;stroke-width:4;stroke-linecap:round;stroke-linejoin:round;stroke-miterlimit:4;stroke-dasharray:none;stroke-dashoffset:0;stroke-opacity:1;color-rendering:auto;image-rendering:auto;shape-rendering:auto;text-rendering:auto;enable-background:accumulate"
                                   d="m 513.5918,430.35938 a 2.0002,2.0002 0 0 0 -0.58594,3.88671 c 10.72748,3.90848 15.12402,8.34581 17.41016,13.77539 2.28613,5.42959 2.32756,12.25972 3.2871,20.57422 a 2.0004,2.0004 0 1 0 3.97461,-0.45703 c -0.92914,-8.05104 -0.8506,-15.2013 -3.57421,-21.66992 -2.72362,-6.46862 -8.38436,-11.84731 -19.72852,-15.98047 a 2.0002,2.0002 0 0 0 -0.7832,-0.1289 z"
                                   id="path3370"
                                   inkscape:connector-curvature="0" />
                                <path
                                   style="color:#000000;font-style:normal;font-variant:normal;font-weight:normal;font-stretch:normal;font-size:medium;line-height:normal;font-family:sans-serif;text-indent:0;text-align:start;text-decoration:none;text-decoration-line:none;text-decoration-style:solid;text-decoration-color:#000000;letter-spacing:normal;word-spacing:normal;text-transform:none;direction:ltr;block-progression:tb;writing-mode:lr-tb;baseline-shift:baseline;text-anchor:start;white-space:normal;clip-rule:nonzero;display:inline;overflow:visible;visibility:visible;opacity:1;isolation:auto;mix-blend-mode:normal;color-interpolation:sRGB;color-interpolation-filters:linearRGB;solid-color:#000000;solid-opacity:1;fill:#800000;fill-opacity:1;fill-rule:evenodd;stroke:none;stroke-width:4.04674768;stroke-linecap:round;stroke-linejoin:round;stroke-miterlimit:4;stroke-dasharray:none;stroke-dashoffset:0;stroke-opacity:1;color-rendering:auto;image-rendering:auto;shape-rendering:auto;text-rendering:auto;enable-background:accumulate"
                                   d="m 431.32617,504.33398 a 2.0235762,2.0235762 0 0 0 -0.91211,0.24219 c 0,0 -28.53263,14.74414 -58.35156,14.74414 -28.57742,0 -58.38086,-14.75976 -58.38086,-14.75976 a 2.0235762,2.0235762 0 1 0 -1.80664,3.62109 c 0,0 30.2299,15.18555 60.1875,15.18555 31.14415,0 60.21875,-15.20117 60.21875,-15.20117 a 2.0235762,2.0235762 0 0 0 -0.95508,-3.83204 z"
                                   id="path4172"
                                   inkscape:connector-curvature="0" />
                                <path
                                   style="color:#000000;font-style:normal;font-variant:normal;font-weight:normal;font-stretch:normal;font-size:medium;line-height:normal;font-family:sans-serif;text-indent:0;text-align:start;text-decoration:none;text-decoration-line:none;text-decoration-style:solid;text-decoration-color:#000000;letter-spacing:normal;word-spacing:normal;text-transform:none;direction:ltr;block-progression:tb;writing-mode:lr-tb;baseline-shift:baseline;text-anchor:start;white-space:normal;clip-rule:nonzero;display:inline;overflow:visible;visibility:visible;opacity:1;isolation:auto;mix-blend-mode:normal;color-interpolation:sRGB;color-interpolation-filters:linearRGB;solid-color:#000000;solid-opacity:1;fill:#800000;fill-opacity:1;fill-rule:evenodd;stroke:none;stroke-width:1.82302988;stroke-linecap:round;stroke-linejoin:round;stroke-miterlimit:4;stroke-dasharray:none;stroke-dashoffset:0;stroke-opacity:1;color-rendering:auto;image-rendering:auto;shape-rendering:auto;text-rendering:auto;enable-background:accumulate"
                                   d="m 337.42383,523.33594 a 0.91160609,0.91160609 0 0 0 -0.25,1.78906 c 0,0 17.60792,5.24023 34.88867,5.24023 17.98254,0 34.90039,-5.24218 34.90039,-5.24218 a 0.9118404,0.9118404 0 0 0 -0.53906,-1.74219 c 0,0 -16.73389,5.16211 -34.36133,5.16211 -16.91093,0 -34.36914,-5.16406 -34.36914,-5.16406 a 0.91160609,0.91160609 0 0 0 -0.26953,-0.043 z"
                                   id="path4251"
                                   inkscape:connector-curvature="0" />
                                <path
                                   style="color:#000000;font-style:normal;font-variant:normal;font-weight:normal;font-stretch:normal;font-size:medium;line-height:normal;font-family:sans-serif;text-indent:0;text-align:start;text-decoration:none;text-decoration-line:none;text-decoration-style:solid;text-decoration-color:#000000;letter-spacing:normal;word-spacing:normal;text-transform:none;direction:ltr;block-progression:tb;writing-mode:lr-tb;baseline-shift:baseline;text-anchor:start;white-space:normal;clip-rule:nonzero;display:inline;overflow:visible;visibility:visible;opacity:1;isolation:auto;mix-blend-mode:normal;color-interpolation:sRGB;color-interpolation-filters:linearRGB;solid-color:#000000;solid-opacity:1;fill:#800000;fill-opacity:1;fill-rule:evenodd;stroke:none;stroke-width:1.30431533;stroke-linecap:round;stroke-linejoin:round;stroke-miterlimit:4;stroke-dasharray:none;stroke-dashoffset:0;stroke-opacity:1;color-rendering:auto;image-rendering:auto;shape-rendering:auto;text-rendering:auto;enable-background:accumulate"
                                   d="m 347.2793,532.33594 a 0.65222288,0.65222288 0 0 0 -0.17774,1.28125 c 0,0 12.59715,3.74804 24.96094,3.74804 12.86588,0 24.96875,-3.75 24.96875,-3.75 a 0.65222288,0.65222288 0 1 0 -0.38477,-1.24609 c 0,0 -11.97216,3.69141 -24.58398,3.69141 -12.09919,0 -24.58984,-3.69336 -24.58984,-3.69336 a 0.65222288,0.65222288 0 0 0 -0.19336,-0.0312 z"
                                   id="path4253"
                                   inkscape:connector-curvature="0" />
                                </g>
                                </g>
                                </g>
                                </g>
                                </g>
                                </g>
                                </g>
                                </g>
                                </g>
                                </g>
                                </g>
                                </g>
                                </g>
                                </g>
                                </g>
                                </g>
                                </g>
                                </g>
                                </g>
                                </g>
                                </g>
                                </g>
                                </g>
                                </g>
                                </g>
                                </g>
                              </g>
                            </g>
                          </g>
                        </g>
                      </g>
                    </g>
                  </g>
                </g>
              </g>
            </g>
          </g>
        </g>
      </g>
    </g>
  </g>
</svg>
